<?xml version="1.0" encoding="utf-8"?>
<!-- Generator: Adobe Illustrator 25.2.1, SVG Export Plug-In . SVG Version: 6.00 Build 0)  -->
<svg version="1.1" id="Calque_1" xmlns="http://www.w3.org/2000/svg" xmlns:xlink="http://www.w3.org/1999/xlink" x="0px" y="0px"
	 viewBox="0 0 370.83 368.24" style="enable-background:new 0 0 370.83 368.24;" xml:space="preserve">
<path d="M311.72,122.29l15.44-0.38v-2.06h-62.58l-78.45,75.64L94.41,53.43H32.38v2.23l6.91,0.38c21.33,0,25.73,2.94,25.34,60.35
	v103.66c0,56.82-8.06,87.15-28.03,88.69h-4.22v2.46h199.18h0.75h94.85v-2.46h-8.06c-22,0-22.27-6.91-22.27-59.51v-66.42
	C296.83,147.06,291.91,122.29,311.72,122.29z M261.89,249.24c0,52.6,1.06,59.51-21.01,59.51c-34.11,0-136.08,0-136.08,0
	c-29.84,0.38-38.01-58.36-38.01-88.69V78c0,0,82.29,146.38,83.67,148.32c1.38,1.94,4.56,2.68,7.68,0
	c3.12-2.68,103.75-99.54,103.75-99.54V249.24z"/>
</svg>
