<?xml version="1.0" encoding="utf-8"?>
<!-- Generator: Adobe Illustrator 25.2.2, SVG Export Plug-In . SVG Version: 6.00 Build 0)  -->
<svg version="1.1" id="RESEAUX" xmlns="http://www.w3.org/2000/svg" xmlns:xlink="http://www.w3.org/1999/xlink" x="0px" y="0px"
	 viewBox="0 0 23 23" style="enable-background:new 0 0 23 23;" xml:space="preserve">
<style type="text/css">
	.st0{fill-rule:evenodd;clip-rule:evenodd;}
</style>
<g id="Composant_5_1" transform="translate(25.917)">
	<path id="Tracé_88" class="st0" d="M-14.4,2.1c1.5-0.1,3.1,0,4.6,0.1c0.7,0,1.5,0.1,2.2,0.4c1,0.4,1.7,1.2,2.2,2.2
		c0.3,0.7,0.4,1.4,0.4,2.2c0,1.2,0.1,1.5,0.1,4.6c0.1,1.5,0,3.1-0.1,4.6c0,0.7-0.1,1.5-0.4,2.2c-0.4,1-1.2,1.7-2.2,2.2
		c-0.7,0.3-1.4,0.4-2.2,0.4c-1.1,0-1.5,0.1-4.6,0.1c-1.5,0.1-3.1,0-4.6-0.1c-0.7,0-1.5-0.1-2.2-0.4c-1-0.4-1.7-1.2-2.2-2.2
		c-0.3-0.7-0.4-1.4-0.4-2.2c0-1.2-0.1-1.5-0.1-4.6c-0.1-1.5,0-3.1,0.1-4.6c0-0.7,0.1-1.5,0.4-2.2c0.2-0.5,0.5-0.9,0.9-1.3
		c0.3-0.4,0.8-0.8,1.3-0.9c0.7-0.3,1.4-0.4,2.2-0.4C-17.5,2.1-15.9,2-14.4,2.1 M-14.4,0C-16,0-17.5,0-19.1,0.2c-1,0-1.9,0.2-2.8,0.5
		c-0.8,0.3-1.5,0.7-2,1.3c-0.6,0.6-1,1.3-1.3,2c-0.4,0.9-0.6,1.8-0.5,2.8c-0.1,1.6-0.2,3.2-0.1,4.7c-0.1,1.6,0,3.2,0.1,4.7
		c0,1,0.2,1.9,0.5,2.8c0.3,0.8,0.7,1.5,1.3,2c0.6,0.6,1.3,1,2,1.3c0.9,0.3,1.9,0.5,2.8,0.5c1.6,0.1,3.2,0.2,4.7,0.1
		c1.6,0.1,3.2,0,4.7-0.1c1,0,1.9-0.2,2.8-0.5c1.6-0.5,2.8-1.8,3.3-3.3c0.3-0.9,0.5-1.9,0.5-2.8c0-1.3,0.1-1.7,0.1-4.7
		c0.1-1.6,0-3.2-0.1-4.7c0-1-0.2-1.9-0.5-2.8c-0.3-0.8-0.7-1.5-1.3-2c-0.6-0.6-1.3-1-2-1.3c-0.9-0.3-1.9-0.5-2.8-0.5
		C-11.2,0-12.8,0-14.4,0 M-14.4,5.6c-3.2-0.1-5.8,2.5-5.9,5.7c0,0.1,0,0.1,0,0.2c0,3.2,2.6,5.9,5.9,5.9s5.9-2.6,5.9-5.9
		C-8.5,8.3-11.2,5.6-14.4,5.6 M-14.4,15.4c-2.1,0-3.8-1.6-3.8-3.7c0,0,0-0.1,0-0.1c0-2.1,1.6-3.8,3.7-3.8c0,0,0.1,0,0.1,0
		c2.1,0,3.8,1.6,3.8,3.7c0,0,0,0.1,0,0.1c0,2.1-1.6,3.8-3.7,3.8C-14.3,15.4-14.3,15.4-14.4,15.4 M-8.3,4C-9,4-9.7,4.6-9.7,5.4
		S-9,6.8-8.3,6.8c0.8,0,1.4-0.6,1.4-1.4C-6.9,4.6-7.5,4-8.3,4"/>
</g>
</svg>
