<?xml version="1.0" encoding="utf-8"?>
<!-- Generator: Adobe Illustrator 25.2.1, SVG Export Plug-In . SVG Version: 6.00 Build 0)  -->
<svg version="1.1" id="Calque_1" xmlns="http://www.w3.org/2000/svg" xmlns:xlink="http://www.w3.org/1999/xlink" x="0px" y="0px"
	 viewBox="0 0 294.78 345.02" style="enable-background:new 0 0 294.78 345.02;" xml:space="preserve">
<path d="M279.34,73.21l15.44-0.38v-2.06H232.2l-78.45,75.64L62.03,4.35H0v2.23l6.91,0.38c21.33,0,25.73,2.94,25.34,60.35v103.66
	c0,56.82-8.06,87.15-28.03,88.69H0v2.46h199.18h0.75h94.85v-2.46h-8.06c-22,0-22.27-6.91-22.27-59.51v-66.42
	C264.45,97.98,259.52,73.21,279.34,73.21z M229.51,200.16c0,52.6,1.06,59.51-21.01,59.51c-34.11,0-136.08,0-136.08,0
	c-29.84,0.38-38.01-58.36-38.01-88.69V28.92c0,0,82.29,146.38,83.67,148.32c1.38,1.94,4.56,2.68,7.68,0
	c3.12-2.68,103.75-99.54,103.75-99.54V200.16z"/>
<g>
	<path d="M38.67,342.31v-0.82l1.44-0.07c3.37-0.14,3.98-0.96,3.98-10.37v-32l-16.21,29.53h-1.37L8.58,300.41v25.41
		c0,5.43,1.58,15.32,6.8,15.59l1.44,0.07v0.82H1.79v-0.82l0.75-0.07c3.57-0.28,5.01-5.43,5.01-15.59v-18.54
		c0-9.41-1.37-10.23-4.53-10.37l-1.24-0.07v-0.82h11.68l16.55,26.37l14.56-26.37h11.2v0.82l-1.44,0.07
		c-3.37,0.14-3.98,0.96-3.98,10.37v23.76c0,9.41,0.62,10.23,3.98,10.37l1.44,0.07v0.82H38.67z"/>
	<path d="M95.29,329.15v-16.93c0-8.08-0.53-8.79-3.42-8.91l-1.24-0.06v-0.71h14.69v0.71l-1.24,0.06c-2.89,0.12-3.42,0.83-3.42,8.91
		v16.88c0,7.55,4.54,12.39,13.33,12.39c8.56,0,13.1-5.66,13.1-12.86v-12.45c0-6.08-2.07-12.69-5.84-12.86l-1.24-0.06v-0.71H133v0.71
		l-0.65,0.06c-3.07,0.24-4.31,4.48-4.31,12.86v12.45c0,8.5-5.96,14.34-16.17,14.34C101.73,342.96,95.29,337.71,95.29,329.15z"/>
	<path d="M199.69,342.31v-0.82l1.44-0.07c3.37-0.14,3.98-0.96,3.98-10.37v-32l-16.21,29.53h-1.37l-17.93-28.16v25.41
		c0,5.43,1.58,15.32,6.8,15.59l1.44,0.07v0.82H162.8v-0.82l0.75-0.07c3.57-0.28,5.01-5.43,5.01-15.59v-18.54
		c0-9.41-1.37-10.23-4.53-10.37l-1.24-0.07v-0.82h11.67l16.55,26.37l14.56-26.37h11.19v0.82l-1.44,0.07
		c-3.37,0.14-3.98,0.96-3.98,10.37v23.76c0,9.41,0.62,10.23,3.98,10.37l1.44,0.07v0.82H199.69z"/>
	<path d="M271.95,343.07c-12.51,0-19.47-9.91-19.47-20.71c0-10.8,6.96-20.59,19.47-20.59c12.51,0,19.47,9.79,19.47,20.59
		C291.42,333.16,284.46,343.07,271.95,343.07z M271.95,302.54c-10.15,0-13.39,9.5-13.39,19.88c0,10.27,3.25,19.88,13.39,19.88
		c10.15,0,13.39-9.5,13.39-19.88C285.34,312.16,282.1,302.54,271.95,302.54z"/>
</g>
</svg>
