<?xml version="1.0" encoding="utf-8"?>
<!-- Generator: Adobe Illustrator 25.2.1, SVG Export Plug-In . SVG Version: 6.00 Build 0)  -->
<svg version="1.1" id="Calque_1" xmlns="http://www.w3.org/2000/svg" xmlns:xlink="http://www.w3.org/1999/xlink" x="0px" y="0px"
	 viewBox="0 0 295.7 48.04" style="enable-background:new 0 0 295.7 48.04;" xml:space="preserve">
<g>
	<path d="M39.99,47.27v-0.82l1.44-0.07c3.37-0.14,3.98-0.96,3.98-10.37v-32L29.21,33.54h-1.37L9.91,5.38v25.41
		c0,5.43,1.58,15.32,6.8,15.59l1.44,0.07v0.82H3.11v-0.82l0.75-0.07c3.57-0.28,5.01-5.43,5.01-15.59V12.25
		c0-9.41-1.37-10.23-4.53-10.37L3.11,1.81V0.98h11.68l16.55,26.37L45.9,0.98h11.2v0.82l-1.44,0.07c-3.37,0.14-3.98,0.96-3.98,10.37
		v23.76c0,9.41,0.62,10.23,3.98,10.37l1.44,0.07v0.82H39.99z"/>
	<path d="M96.62,34.12V17.18c0-8.08-0.53-8.79-3.42-8.91l-1.24-0.06V7.5h14.69v0.71l-1.24,0.06c-2.89,0.12-3.42,0.83-3.42,8.91
		v16.88c0,7.55,4.54,12.39,13.33,12.39c8.56,0,13.1-5.66,13.1-12.86V21.13c0-6.08-2.07-12.69-5.84-12.86l-1.24-0.06V7.5h12.98v0.71
		l-0.65,0.06c-3.07,0.24-4.31,4.48-4.31,12.86v12.45c0,8.5-5.96,14.34-16.17,14.34C103.05,47.92,96.62,42.67,96.62,34.12z"/>
	<path d="M201.01,47.27v-0.82l1.44-0.07c3.37-0.14,3.98-0.96,3.98-10.37v-32l-16.21,29.53h-1.37L170.93,5.38v25.41
		c0,5.43,1.58,15.32,6.8,15.59l1.44,0.07v0.82h-15.04v-0.82l0.75-0.07c3.57-0.28,5.01-5.43,5.01-15.59V12.25
		c0-9.41-1.37-10.23-4.53-10.37l-1.24-0.07V0.98h11.67l16.55,26.37l14.56-26.37h11.19v0.82l-1.44,0.07
		c-3.37,0.14-3.98,0.96-3.98,10.37v23.76c0,9.41,0.62,10.23,3.98,10.37l1.44,0.07v0.82H201.01z"/>
	<path d="M273.27,48.04c-12.51,0-19.47-9.91-19.47-20.71c0-10.8,6.96-20.59,19.47-20.59c12.51,0,19.47,9.79,19.47,20.59
		C292.75,38.13,285.78,48.04,273.27,48.04z M273.27,7.5c-10.15,0-13.39,9.5-13.39,19.88c0,10.27,3.25,19.88,13.39,19.88
		c10.15,0,13.39-9.5,13.39-19.88C286.67,17.12,283.42,7.5,273.27,7.5z"/>
</g>
</svg>
