<?xml version="1.0" encoding="utf-8"?>
<!-- Generator: Adobe Illustrator 25.2.1, SVG Export Plug-In . SVG Version: 6.00 Build 0)  -->
<svg version="1.1" id="Calque_1" xmlns="http://www.w3.org/2000/svg" xmlns:xlink="http://www.w3.org/1999/xlink" x="0px" y="0px"
	 viewBox="0 0 301.67 263.44" style="enable-background:new 0 0 301.67 263.44;" xml:space="preserve">
<path d="M283.05,71.81l15.44-0.38v-2.06H235.9l-78.45,75.64L65.74,2.95H3.71v2.23l6.91,0.38c21.33,0,25.73,2.94,25.34,60.35v103.66
	c0,56.82-8.06,87.15-28.03,88.69H3.71v2.46h199.18h0.75h94.85v-2.46h-8.06c-22,0-22.27-6.91-22.27-59.51v-66.42
	C268.15,96.57,263.23,71.81,283.05,71.81z M233.21,198.76c0,52.6,1.06,59.51-21.01,59.51c-34.11,0-136.08,0-136.08,0
	c-29.84,0.38-38.01-58.36-38.01-88.69V27.52c0,0,82.29,146.38,83.67,148.32c1.38,1.94,4.56,2.68,7.68,0S233.21,76.3,233.21,76.3
	V198.76z"/>
</svg>
