<?xml version="1.0" encoding="utf-8"?>
<!-- Generator: Adobe Illustrator 25.2.1, SVG Export Plug-In . SVG Version: 6.00 Build 0)  -->
<svg version="1.1" id="Calque_1" xmlns="http://www.w3.org/2000/svg" xmlns:xlink="http://www.w3.org/1999/xlink" x="0px" y="0px"
	 viewBox="0 0 370.83 115.03" style="enable-background:new 0 0 370.83 115.03;" xml:space="preserve">
<g>
	<path d="M78.15,80.18v-0.82l1.44-0.07c3.37-0.14,3.98-0.96,3.98-10.37v-32L67.37,66.44H66L48.07,38.29V63.7
		c0,5.43,1.58,15.32,6.8,15.59l1.44,0.07v0.82H41.27v-0.82l0.75-0.07c3.57-0.28,5.01-5.43,5.01-15.59V45.15
		c0-9.41-1.37-10.23-4.53-10.37l-1.24-0.07v-0.82h11.68L69.5,60.26l14.56-26.37h11.2v0.82l-1.44,0.07
		c-3.37,0.14-3.98,0.96-3.98,10.37v23.76c0,9.41,0.62,10.23,3.98,10.37l1.44,0.07v0.82H78.15z"/>
	<path d="M134.78,67.02V50.09c0-8.08-0.53-8.79-3.42-8.91l-1.24-0.06v-0.71h14.69v0.71l-1.24,0.06c-2.89,0.12-3.42,0.83-3.42,8.91
		v16.87c0,7.55,4.54,12.39,13.33,12.39c8.56,0,13.1-5.66,13.1-12.86V54.04c0-6.08-2.07-12.69-5.84-12.86l-1.24-0.06v-0.71h12.98
		v0.71l-0.65,0.06c-3.07,0.24-4.31,4.48-4.31,12.86v12.45c0,8.5-5.96,14.34-16.17,14.34C141.21,80.83,134.78,75.58,134.78,67.02z"/>
	<path d="M239.17,80.18v-0.82l1.44-0.07c3.37-0.14,3.98-0.96,3.98-10.37v-32l-16.21,29.53h-1.37l-17.93-28.16V63.7
		c0,5.43,1.58,15.32,6.8,15.59l1.44,0.07v0.82h-15.04v-0.82l0.75-0.07c3.57-0.28,5.01-5.43,5.01-15.59V45.15
		c0-9.41-1.37-10.23-4.53-10.37l-1.24-0.07v-0.82h11.67l16.55,26.37l14.56-26.37h11.19v0.82l-1.44,0.07
		c-3.37,0.14-3.98,0.96-3.98,10.37v23.76c0,9.41,0.62,10.23,3.98,10.37l1.44,0.07v0.82H239.17z"/>
	<path d="M311.43,80.95c-12.51,0-19.47-9.91-19.47-20.71c0-10.8,6.96-20.59,19.47-20.59c12.51,0,19.47,9.79,19.47,20.59
		C330.91,71.04,323.94,80.95,311.43,80.95z M311.43,40.41c-10.15,0-13.39,9.5-13.39,19.88c0,10.27,3.25,19.88,13.39,19.88
		c10.15,0,13.39-9.5,13.39-19.88C324.83,50.03,321.58,40.41,311.43,40.41z"/>
</g>
</svg>
