<svg id="RESEAUX" xmlns="http://www.w3.org/2000/svg" width="48.912" height="22.995" viewBox="0 0 48.912 22.995">
  <g id="Composant_4_3" data-name="Composant 4 – 3">
    <path id="Tracé_86" data-name="Tracé 86" d="M87.793,22.995V12.519H91.37l.511-4.088H87.793V5.876c0-1.15.383-2.044,2.044-2.044h2.172V.128C91.5.128,90.22,0,88.815,0c-3.066,0-5.238,1.916-5.238,5.365V8.431H80v4.088h3.577V22.995Z" transform="translate(-80)" fill-rule="evenodd"/>
  </g>
  <g id="Composant_5_1" data-name="Composant 5 – 1" transform="translate(25.917)">
    <path id="Tracé_88" data-name="Tracé 88" d="M11.5,2.044a35.254,35.254,0,0,1,4.6.128,5.925,5.925,0,0,1,2.172.383A4.487,4.487,0,0,1,20.44,4.727,5.925,5.925,0,0,1,20.823,6.9c0,1.15.128,1.533.128,4.6a35.253,35.253,0,0,1-.128,4.6,5.925,5.925,0,0,1-.383,2.172,4.487,4.487,0,0,1-2.172,2.172,5.925,5.925,0,0,1-2.172.383c-1.15,0-1.533.128-4.6.128a35.253,35.253,0,0,1-4.6-.128,5.925,5.925,0,0,1-2.172-.383,4.487,4.487,0,0,1-2.172-2.172A5.925,5.925,0,0,1,2.172,16.1c0-1.15-.128-1.533-.128-4.6a35.254,35.254,0,0,1,.128-4.6,5.925,5.925,0,0,1,.383-2.172,4.588,4.588,0,0,1,.894-1.277,2.16,2.16,0,0,1,1.277-.894A5.925,5.925,0,0,1,6.9,2.172a35.254,35.254,0,0,1,4.6-.128M11.5,0A37.746,37.746,0,0,0,6.771.128,7.887,7.887,0,0,0,3.96.639,5,5,0,0,0,1.916,1.916,5,5,0,0,0,.639,3.96a5.821,5.821,0,0,0-.511,2.81A37.746,37.746,0,0,0,0,11.5a37.746,37.746,0,0,0,.128,4.727,7.887,7.887,0,0,0,.511,2.81,5,5,0,0,0,1.277,2.044A5,5,0,0,0,3.96,22.356a7.887,7.887,0,0,0,2.81.511,37.747,37.747,0,0,0,4.727.128,37.747,37.747,0,0,0,4.727-.128,7.887,7.887,0,0,0,2.81-.511,5.36,5.36,0,0,0,3.321-3.321,7.887,7.887,0,0,0,.511-2.81c0-1.277.128-1.661.128-4.727a37.747,37.747,0,0,0-.128-4.727,7.887,7.887,0,0,0-.511-2.81,5,5,0,0,0-1.277-2.044A5,5,0,0,0,19.035.639a7.887,7.887,0,0,0-2.81-.511A37.746,37.746,0,0,0,11.5,0m0,5.621A5.782,5.782,0,0,0,5.621,11.5,5.876,5.876,0,1,0,11.5,5.621m0,9.709A3.764,3.764,0,0,1,7.665,11.5,3.764,3.764,0,0,1,11.5,7.665,3.764,3.764,0,0,1,15.33,11.5,3.764,3.764,0,0,1,11.5,15.33M17.629,3.96a1.405,1.405,0,1,0,1.405,1.405A1.418,1.418,0,0,0,17.629,3.96" fill-rule="evenodd"/>
  </g>
</svg>
